<svg xmlns="http://www.w3.org/2000/svg" viewBox="85 195 720 430">
  <path fill-rule="evenodd" clip-rule="evenodd" fill="#F05032" d="M507.209,605.521
      c13.959-29.575,27.67-58.588,41.348-87.615
      c9.422-19.998,18.791-40.022,28.2-60.028c12.743-27.096,25.518-54.176,38.248-81.278c6.521-13.884,12.977-27.8,19.824-42.479
      c-22.784-10.744,-45.457-21.436,-68.844-32.464c-17.09,36.347,-34.109,72.547,-51.401,109.325
      c-37.425-17.598,-74.725-35.138,-112.222-52.769c2.426-5.397,4.578-10.419,6.919-15.353
      c9.221-19.43,18.531-38.817,27.742-58.252c3.217-6.788,6.696-13.504,9.254-20.544
      c3.743-10.307,11.416-16.875,19.813-23.028c22.391-16.406,47.021-28.276,73.849-35.146
      c24.879-6.371,50.176-8.049,75.849-5.18c25.813,2.886,50.262,10.112,73.291,21.799
      c16.26,8.251,31.271,18.575,44.828,30.931c13.132,11.968,24.895,25.078,34.746,39.882
      c8.548,12.847,16.274,26.214,21.115,40.869c4.573,13.843,8.971,27.891,11.631,42.186
      c5.499,29.545,3.853,59,-3.678,88.186c-6.081,23.571,-15.923,45.33,-29.527,65.453
      c-13.463,19.915,-29.935,36.807,-49.122,51.382c-19.283,14.647,-40.58,25.175,-63.344,32.548
      c-17.179,5.563,-35.059,8.387,-53.259,9.224c-31.354,1.441,-61.39-4.05,-90.451-15.562
      C510.46,606.99,508.941,606.274,507.209,605.521z"/>
  <path fill-rule="evenodd" clip-rule="evenodd" fill="#F05032" d="M325.776,520.754
      c17.135-36.446,33.917-72.14,51.061-108.601
      c37.417,17.601,74.558,35.071,112.205,52.779c-3.495,7.635,-6.775,15.001,-10.224,22.287
      c-9.197,19.44,-18.497,38.831,-27.691,58.273c-3.213,6.794,-6.594,13.542,-9.244,20.558
      c-3,7.943,-8.325,13.698,-15.368,17.852c-13.659,8.056,-27.073,16.729,-41.404,23.392
      c-16.483,7.661,-34.13,12.256,-52.288,14.77c-36.222,5.017,-71.439,1.576,-105.711-11.333
      c-18.798-7.081,-36.189-16.706,-52.295-28.643c-15.462-11.461,-29-24.951,-40.776-40.149
      c-13.232-17.075,-23.513-35.858,-31.013-56.101c-6.442-17.388,-10.905-35.299,-12.059-53.861
      c-0.651-10.473,-1.312-21.029,-0.729-31.477c1.203-21.53,5.546-42.461,13.188-62.765
      c8.125-21.59,19.468-41.269,33.875-59.105c13.73-17,29.865-31.51,48.224-43.525
      c16.229-10.621,33.491-19.109,51.957-24.852c25.774-8.016,52.173-11.418,79.233-9.379
      c22.52,1.695,44.201,6.691,65.132,15.085c1.416,0.567,2.801,1.207,4.5,1.942
      c-2.315,5.19,-4.443,10.224,-6.784,15.158c-8.956,18.876,-18.028,37.697,-26.966,56.582
      c-10.05,21.235,-19.998,42.519,-29.999,63.777c-9.936,21.118,-19.898,42.226,-29.825,63.349
      c-10.058,21.401,-20.099,42.811,-30.119,64.229c-1.227,2.622,-2.276,5.327,-3.582,8.404
      C281.252,499.825,303.411,510.24,325.776,520.754z"/>
</svg>
